<svg viewBox="0 0 260 230" xmlns="http://www.w3.org/2000/svg" fill="none">
  <!-- Large speech bubble (main, clay) with tail pointing down-left -->
  <path d="M 26,10 L 185,10 Q 202,10 202,27 L 202,110 Q 202,127 185,127 L 72,127 L 48,155 L 40,127 L 26,127 Q 9,127 9,110 L 9,27 Q 9,10 26,10 Z"
        fill="#C4956A" fill-opacity="0.18" stroke="#C4956A" stroke-width="2.5" stroke-linejoin="round"/>
  <!-- Text lines inside large bubble -->
  <line x1="30" y1="52" x2="140" y2="52" stroke="#F5F0E8" stroke-width="3" stroke-linecap="round" opacity="0.75"/>
  <line x1="30" y1="72" x2="165" y2="72" stroke="#F5F0E8" stroke-width="3" stroke-linecap="round" opacity="0.75"/>
  <line x1="30" y1="92" x2="115" y2="92" stroke="#F5F0E8" stroke-width="3" stroke-linecap="round" opacity="0.75"/>

  <!-- Small speech bubble (response, sage) with tail pointing up-right -->
  <path d="M 76,122 L 175,122 L 196,100 L 222,122 L 238,122 Q 252,122 252,136 L 252,204 Q 252,218 238,218 L 76,218 Q 62,218 62,204 L 62,136 Q 62,122 76,122 Z"
        fill="#7A9E7E" fill-opacity="0.15" stroke="#7A9E7E" stroke-width="2" stroke-linejoin="round"/>
  <!-- Text lines inside small bubble -->
  <line x1="80" y1="155" x2="195" y2="155" stroke="#D4E4D6" stroke-width="2.5" stroke-linecap="round" opacity="0.7"/>
  <line x1="80" y1="175" x2="228" y2="175" stroke="#D4E4D6" stroke-width="2.5" stroke-linecap="round" opacity="0.7"/>
  <line x1="80" y1="195" x2="165" y2="195" stroke="#D4E4D6" stroke-width="2.5" stroke-linecap="round" opacity="0.7"/>

  <!-- Small floating dots -->
  <circle cx="228" cy="22" r="4.5" fill="#C4956A" opacity="0.4"/>
  <circle cx="246" cy="46" r="3" fill="#7A9E7E" opacity="0.38"/>
  <circle cx="14" cy="188" r="3.5" fill="#7A9E7E" opacity="0.3"/>
</svg>
