<svg viewBox="0 0 480 380" xmlns="http://www.w3.org/2000/svg" fill="none">
  <!-- Outer organic wave -->
  <path d="M 240,58 C 322,54 406,110 408,190 C 410,270 336,334 254,334 C 172,334 66,278 64,198 C 62,118 158,62 240,58 Z"
        stroke="#7A9E7E" stroke-width="1" opacity="0.13"/>
  <!-- Middle wave -->
  <path d="M 240,92 C 310,88 378,136 378,192 C 378,248 314,298 248,298 C 182,298 102,256 100,200 C 98,144 168,96 240,92 Z"
        stroke="#7A9E7E" stroke-width="1.5" opacity="0.21"/>
  <!-- Inner wave -->
  <path d="M 240,130 C 298,126 349,162 348,194 C 347,226 298,262 248,264 C 198,266 132,234 130,200 C 128,166 180,134 240,130 Z"
        stroke="#C4956A" stroke-width="1.8" opacity="0.3"/>
  <!-- Central organic breath form -->
  <path d="M 240,163 C 265,161 285,176 284,194 C 283,212 263,226 240,226 C 217,226 197,211 196,194 C 195,177 215,165 240,163 Z"
        fill="#C4956A" opacity="0.42"/>
  <!-- Seed dots -->
  <circle cx="148" cy="86" r="5" fill="#C4956A" opacity="0.26"/>
  <circle cx="344" cy="70" r="3.5" fill="#7A9E7E" opacity="0.3"/>
  <circle cx="416" cy="212" r="4" fill="#7A9E7E" opacity="0.22"/>
  <circle cx="352" cy="320" r="5.5" fill="#C4956A" opacity="0.17"/>
  <circle cx="62" cy="232" r="3" fill="#7A9E7E" opacity="0.2"/>
  <circle cx="232" cy="44" r="3.5" fill="#D4E4D6" opacity="0.38"/>
  <!-- Leaf pair at top -->
  <path d="M 216,46 C 220,33 235,32 235,46 C 235,59 219,64 213,57 C 208,50 212,59 216,46 Z"
        fill="#7A9E7E" opacity="0.28"/>
  <path d="M 264,46 C 260,33 245,32 245,46 C 245,59 261,64 267,57 C 272,50 268,59 264,46 Z"
        fill="#7A9E7E" opacity="0.22"/>
  <!-- Small leaf bottom right -->
  <path d="M 388,302 C 398,288 416,290 414,305 C 412,320 396,324 388,314 C 381,306 378,316 388,302 Z"
        fill="#C4956A" opacity="0.18"/>
</svg>
