<svg viewBox="0 0 480 380" xmlns="http://www.w3.org/2000/svg" fill="none">
  <!-- Outer organic shield -->
  <path d="M 240,46 C 284,46 348,66 382,97 C 418,130 424,180 415,228 C 402,290 364,336 323,360 C 296,376 267,382 240,382 C 213,382 184,376 157,360 C 116,336 78,290 65,228 C 56,180 62,130 98,97 C 132,66 196,46 240,46 Z"
        stroke="#7A9E7E" stroke-width="1.5" opacity="0.22"/>
  <!-- Inner shield fill + stroke -->
  <path d="M 240,78 C 276,78 330,95 358,121 C 388,149 393,190 383,232 C 371,284 340,320 310,341 C 288,356 263,362 240,362 C 217,362 192,356 170,341 C 140,320 109,284 97,232 C 87,190 92,149 122,121 C 150,95 204,78 240,78 Z"
        fill="#7A9E7E" opacity="0.07"/>
  <path d="M 240,78 C 276,78 330,95 358,121 C 388,149 393,190 383,232 C 371,284 340,320 310,341 C 288,356 263,362 240,362 C 217,362 192,356 170,341 C 140,320 109,284 97,232 C 87,190 92,149 122,121 C 150,95 204,78 240,78 Z"
        stroke="#7A9E7E" stroke-width="1.5" opacity="0.28"/>
  <!-- Stethoscope chestpiece -->
  <circle cx="204" cy="276" r="31" stroke="#C4956A" stroke-width="2" opacity="0.38"/>
  <circle cx="204" cy="276" r="17" stroke="#C4956A" stroke-width="1.5" opacity="0.28"/>
  <!-- Stethoscope tubing -->
  <path d="M 204,245 C 205,216 218,199 240,190 C 263,181 285,184 300,199 C 315,214 316,236 306,250"
        stroke="#C4956A" stroke-width="2.5" opacity="0.38"/>
  <!-- Earpiece curve -->
  <path d="M 306,250 C 298,265 285,270 273,267"
        stroke="#C4956A" stroke-width="2.5" opacity="0.32"/>
  <circle cx="273" cy="267" r="5.5" fill="#C4956A" opacity="0.45"/>
  <circle cx="306" cy="250" r="5.5" fill="#C4956A" opacity="0.45"/>
  <!-- Certification star at top -->
  <path d="M 240,116 L 245,130 L 260,130 L 248,139 L 253,154 L 240,145 L 227,154 L 232,139 L 220,130 L 235,130 Z"
        fill="#7A9E7E" opacity="0.32"/>
  <!-- Leaf accents -->
  <path d="M 143,144 C 153,128 172,129 170,144 C 168,160 151,166 143,155 C 136,147 133,160 143,144 Z"
        fill="#7A9E7E" opacity="0.22"/>
  <path d="M 337,144 C 327,128 308,129 310,144 C 312,160 329,166 337,155 C 344,147 347,160 337,144 Z"
        fill="#7A9E7E" opacity="0.22"/>
  <!-- Scattered dots -->
  <circle cx="186" cy="100" r="4" fill="#C4956A" opacity="0.22"/>
  <circle cx="294" cy="94" r="3.5" fill="#C4956A" opacity="0.2"/>
  <circle cx="140" cy="234" r="3" fill="#7A9E7E" opacity="0.25"/>
  <circle cx="340" cy="234" r="3" fill="#7A9E7E" opacity="0.25"/>
</svg>
